<svg width="323" height="301" viewBox="0 0 323 301" fill="none" xmlns="http://www.w3.org/2000/svg">
<g clip-path="url(#clip0)">
<path d="M21.1434 184.258C32.8205 184.258 42.2867 174.798 42.2867 163.129C42.2867 151.46 32.8205 142 21.1434 142C9.46621 142 0 151.46 0 163.129C0 174.798 9.46621 184.258 21.1434 184.258Z" fill="#F0F0F0"/>
<path d="M193.857 231.607C205.534 231.607 215 222.148 215 210.478C215 198.809 205.534 189.349 193.857 189.349C182.179 189.349 172.713 198.809 172.713 210.478C172.713 222.148 182.179 231.607 193.857 231.607Z" fill="#F0F0F0"/>
<path d="M127.807 299.289L124.09 297.725L121.54 279.103H87.5816L84.8176 297.649L81.492 299.311C81.3328 299.39 81.2052 299.521 81.1298 299.682C81.0545 299.843 81.0357 300.025 81.0766 300.198C81.1174 300.371 81.2156 300.525 81.3551 300.635C81.4946 300.746 81.6673 300.806 81.8452 300.806H127.5C127.683 300.806 127.859 300.743 128.001 300.627C128.142 300.512 128.238 300.351 128.275 300.173C128.311 299.994 128.284 299.809 128.199 299.648C128.113 299.486 127.975 299.36 127.807 299.289V299.289Z" fill="#E6E6E6"/>
<path d="M188.152 281.581H21.3416C20.4664 281.579 19.6277 281.23 19.0095 280.611C18.3914 279.992 18.0442 279.153 18.0442 278.278V254.772H191.45V278.278C191.45 279.153 191.103 279.992 190.484 280.611C189.866 281.23 189.028 281.579 188.152 281.581V281.581Z" fill="#CCCCCC"/>
<path d="M191.624 265.881H17.892V165.302C17.8932 164.246 18.3133 163.234 19.0602 162.488C19.8071 161.742 20.8198 161.322 21.876 161.321H187.64C188.696 161.322 189.709 161.742 190.456 162.488C191.203 163.234 191.623 164.246 191.624 165.302V265.881Z" fill="#3F3D56"/>
<path d="M181.248 258.581H28.2683C27.454 258.58 26.6733 258.257 26.0975 257.681C25.5217 257.106 25.1978 256.326 25.1969 255.512V171.69C25.1978 170.876 25.5217 170.096 26.0975 169.521C26.6733 168.945 27.454 168.622 28.2683 168.621H181.248C182.062 168.622 182.843 168.945 183.419 169.521C183.994 170.096 184.318 170.876 184.319 171.69V255.512C184.318 256.326 183.994 257.106 183.419 257.681C182.843 258.257 182.062 258.58 181.248 258.581V258.581Z" fill="white"/>
<path d="M147.661 301H61.6999C61.6118 301.002 61.5256 300.975 61.4547 300.922C61.3838 300.87 61.3321 300.796 61.3078 300.711C61.2926 300.654 61.2908 300.594 61.3026 300.535C61.3144 300.477 61.3394 300.422 61.3758 300.375C61.4121 300.328 61.4588 300.289 61.5123 300.263C61.5657 300.237 61.6245 300.223 61.6841 300.223H147.629C147.722 300.22 147.813 300.248 147.888 300.303C147.963 300.358 148.017 300.437 148.041 300.527C148.054 300.584 148.053 300.643 148.04 300.699C148.027 300.756 148.001 300.809 147.965 300.854C147.928 300.9 147.882 300.936 147.829 300.962C147.777 300.987 147.719 301 147.661 301Z" fill="#CCCCCC"/>
<path d="M163.908 243.659H131.677C131.596 243.666 131.517 243.641 131.455 243.59C131.393 243.539 131.353 243.465 131.345 243.385V217.404C131.353 217.324 131.393 217.251 131.455 217.199C131.517 217.148 131.596 217.123 131.677 217.13H163.908C163.988 217.123 164.068 217.148 164.13 217.199C164.192 217.251 164.231 217.324 164.24 217.404V243.385C164.231 243.465 164.192 243.539 164.13 243.59C164.068 243.641 163.988 243.666 163.908 243.659V243.659Z" fill="#F0F0F0"/>
<path d="M160.404 220.004H135.18C135.092 220.004 135.008 220.039 134.945 220.102C134.883 220.164 134.848 220.248 134.848 220.336V239.868C134.848 239.956 134.883 240.04 134.945 240.102C135.008 240.164 135.092 240.199 135.18 240.2H160.404C160.492 240.199 160.577 240.164 160.639 240.102C160.701 240.04 160.736 239.956 160.736 239.868V220.336C160.736 220.248 160.701 220.164 160.639 220.102C160.577 220.039 160.492 220.004 160.404 220.004V220.004Z" fill="white"/>
<path d="M147.169 233.239C148.94 233.239 150.376 231.805 150.376 230.035C150.376 228.264 148.94 226.83 147.169 226.83C145.398 226.83 143.962 228.264 143.962 230.035C143.962 231.805 145.398 233.239 147.169 233.239Z" fill="#FFB8B8"/>
<path d="M151.861 240.199H144.75L144.983 234.975L145.038 234.917L145.836 234.075H148.375L149.317 234.986L149.393 235.059L151.397 236.979L151.861 240.199Z" fill="#6C63FF"/>
<path d="M145.973 240.2H140.594C140.58 239.02 140.573 238.314 140.573 238.314L140.884 238.125L140.886 238.124H140.886L144.315 236.044L145.034 234.876L145.038 234.917L145.25 237.38C145.25 237.38 145.599 238.509 145.973 240.2Z" fill="#2F2E41"/>
<path d="M155.015 240.2H149.317C149.403 236.76 148.938 234.876 149.177 234.876L149.317 234.986L150.996 236.311L153.21 237.122H153.211L154.737 237.682L155.005 237.78V237.906C155.006 238.208 155.007 239.034 155.015 240.2Z" fill="#2F2E41"/>
<path d="M144.135 231.037C144.135 231.037 144.407 230.559 144.344 228.961C144.281 227.364 146.715 228.267 148.749 228.115C150.783 227.963 150.353 230.782 150.353 230.782C150.353 230.782 150.499 230.615 150.814 229.254C151.128 227.893 150.414 226.537 150.414 226.537C150.204 225.107 149.072 225.565 149.072 225.565C149.215 225.602 149.34 225.69 149.421 225.813C149.503 225.936 149.535 226.085 149.513 226.231C149.051 225.422 147.919 225.881 147.919 225.881C146.409 224.934 144.878 226.181 144.878 226.181C143.054 226.594 144.124 228.044 144.124 228.044C142.289 228.971 144.135 231.037 144.135 231.037Z" fill="#2F2E41"/>
<path d="M141.312 240.2H139.102C139.119 239.927 139.119 239.654 139.103 239.382C138.971 238.857 140.828 238.146 140.884 238.125L140.886 238.124H140.886L141.24 238.314L141.312 240.2Z" fill="#2F2E41"/>
<path d="M155.414 240.2H153.092L152.802 237.34L153.128 237.102C153.128 237.102 153.157 237.109 153.21 237.122H153.211C153.741 237.243 154.254 237.431 154.737 237.682C154.839 237.739 154.93 237.815 155.005 237.906C155.05 237.961 155.073 238.031 155.068 238.102C155.056 238.209 155.192 238.996 155.414 240.2Z" fill="#2F2E41"/>
<path d="M163.803 210.51H131.572C131.491 210.517 131.412 210.492 131.349 210.441C131.287 210.389 131.248 210.316 131.24 210.236V184.246C131.248 184.166 131.287 184.092 131.349 184.041C131.412 183.989 131.491 183.964 131.572 183.971H163.803C163.883 183.964 163.963 183.989 164.025 184.041C164.087 184.092 164.126 184.166 164.135 184.246V210.236C164.126 210.316 164.087 210.389 164.025 210.441C163.963 210.492 163.883 210.517 163.803 210.51V210.51Z" fill="#F0F0F0"/>
<path d="M160.299 186.846H135.075C134.987 186.846 134.903 186.881 134.84 186.943C134.778 187.005 134.743 187.089 134.743 187.177V206.709C134.743 206.797 134.778 206.882 134.84 206.944C134.903 207.006 134.987 207.041 135.075 207.041H160.299C160.387 207.041 160.472 207.006 160.534 206.944C160.596 206.882 160.631 206.797 160.631 206.709V187.177C160.631 187.089 160.596 187.005 160.534 186.943C160.472 186.881 160.387 186.846 160.299 186.846V186.846Z" fill="white"/>
<path d="M153.896 207.041C154.038 206.529 154.149 206.087 154.206 205.775C154.223 205.678 154.225 205.58 154.211 205.483C153.998 203.973 150.162 202.696 149.67 202.538L149.551 201.223L144.722 200.704L144.11 202.386L142.377 203.035C142.314 203.058 142.254 203.089 142.199 203.127C142.054 203.225 141.942 203.365 141.879 203.528C141.816 203.692 141.804 203.871 141.846 204.041L142.584 207.041H153.896L153.896 207.041Z" fill="#6C63FF"/>
<path d="M143.884 207.041H140.137C140.271 206.205 140.391 205.466 140.469 204.996C140.756 203.284 142.004 203.138 142.199 203.127C142.215 203.125 142.224 203.125 142.225 203.125H143.013L143.884 207.041Z" fill="#6C63FF"/>
<path d="M153.896 207.041H154.805C154.76 206.475 154.554 205.935 154.211 205.483C154.039 205.255 153.816 205.071 153.561 204.943L153.492 204.913L152.694 207.041H153.896Z" fill="#6C63FF"/>
<path d="M146.948 199.872C148.868 199.872 150.425 198.316 150.425 196.397C150.425 194.477 148.868 192.922 146.948 192.922C145.027 192.922 143.47 194.477 143.47 196.397C143.47 198.316 145.027 199.872 146.948 199.872Z" fill="#A0616A"/>
<path d="M144.614 194.704C144.974 195.129 145.583 195.249 146.145 195.298C147.458 195.371 148.776 195.263 150.061 194.979C150.141 195.75 149.923 196.581 150.378 197.215C150.591 196.447 150.714 195.658 150.747 194.862C150.781 194.52 150.736 194.175 150.616 193.853C150.552 193.692 150.444 193.552 150.305 193.449C150.165 193.346 149.999 193.285 149.826 193.271C150.085 193.075 150.388 192.945 150.71 192.894L149.605 192.339L149.889 192.048L147.89 191.926L148.469 191.559C147.597 191.439 146.715 191.411 145.838 191.476C145.428 191.476 145.026 191.588 144.675 191.799C144.345 192.035 144.154 192.504 144.359 192.85C144.102 192.892 143.861 192.999 143.657 193.16C143.454 193.322 143.295 193.533 143.195 193.773C143.07 194.154 143.039 194.561 143.107 194.957C143.182 195.592 143.33 196.217 143.547 196.819" fill="#2F2E41"/>
<path d="M45.2764 242.933V184.163C45.297 183.981 45.3882 183.814 45.5305 183.698C45.6728 183.582 45.8549 183.526 46.0378 183.542H119.982C120.165 183.526 120.347 183.582 120.489 183.698C120.631 183.814 120.723 183.981 120.743 184.163V242.933C120.723 243.115 120.631 243.282 120.489 243.398C120.347 243.514 120.165 243.57 119.982 243.554H46.0378C45.8549 243.57 45.6728 243.514 45.5305 243.398C45.3882 243.282 45.297 243.115 45.2764 242.933V242.933Z" fill="#E4E4E4"/>
<path d="M53.3137 190.898V235.708C53.314 235.91 53.3943 236.103 53.5371 236.246C53.6798 236.388 53.8733 236.469 54.0752 236.469H111.944C112.146 236.469 112.34 236.388 112.482 236.246C112.625 236.103 112.706 235.91 112.706 235.708V190.898C112.706 190.697 112.625 190.503 112.482 190.361C112.34 190.218 112.146 190.138 111.944 190.137H54.0752C53.8733 190.138 53.6798 190.218 53.5371 190.361C53.3943 190.503 53.314 190.697 53.3137 190.898V190.898Z" fill="white"/>
<path d="M77.3159 236.469H88.9625L88.2366 225.583L84.0352 226.552L79.9488 224.981L79.8405 224.94L79.8337 224.937C79.8323 224.94 79.8311 224.943 79.8303 224.947C79.766 225.206 78.4834 230.338 77.3159 236.469Z" fill="#6C63FF"/>
<path d="M70.2971 227.36L71.3851 236.469H81.201L79.9489 224.981L79.937 224.869L79.8407 224.94L79.8305 224.947L77.4089 226.712L70.2971 227.36Z" fill="#2F2E41"/>
<path d="M87.24 236.469H96.0304L96.1573 229.298L89.6884 227.154L88.2367 225.583C88.2367 225.583 87.7781 230.309 87.24 236.469Z" fill="#2F2E41"/>
<path d="M66.0653 236.469H73.3498L72.8827 229.944L70.2973 227.36C70.2973 227.36 68.2515 231.648 66.0653 236.469Z" fill="#2F2E41"/>
<path d="M93.9575 236.469H97.8003C97.7833 234.379 97.7732 232.935 97.7732 232.527C97.7924 231.897 97.6549 231.273 97.3728 230.709C97.0908 230.145 96.6731 229.66 96.1572 229.298L94.2164 229.944L93.9575 236.469Z" fill="#2F2E41"/>
<path d="M94.5571 222.157H74.1949V213.581C74.1949 210.642 76.2671 207.108 78.814 205.703C82.3889 203.732 86.2971 203.698 89.5363 205.609C91.0611 206.511 92.3253 207.793 93.2054 209.33C94.0854 210.867 94.5512 212.606 94.5571 214.377V222.157Z" fill="#2F2E41"/>
<path d="M91.2326 218.121C93.1809 214.56 91.871 210.094 88.3069 208.147C84.7428 206.2 80.2741 207.509 78.3258 211.071C76.3775 214.632 77.6874 219.098 81.2515 221.045C84.8156 222.992 89.2843 221.683 91.2326 218.121Z" fill="#FFB8B8"/>
<path d="M91.7699 214.975H81.2775L81.2526 214.856C81.1312 214.231 80.9743 213.614 80.7826 213.006C80.3659 213.616 79.9817 214.248 79.6315 214.898L79.5887 214.975H77.5489C77.4238 214.975 77.3 214.949 77.1855 214.898C77.071 214.848 76.9684 214.774 76.8841 214.681C76.8286 214.62 76.6988 214.477 77.236 207.924C77.2508 207.767 77.3059 207.618 77.3959 207.49C77.4859 207.361 77.6078 207.258 77.7495 207.191C82.3533 205.043 87.0187 205.1 91.6171 207.361H91.6991L91.7279 207.475C92.6351 214.451 92.5046 214.601 92.4489 214.666C92.3646 214.763 92.2603 214.841 92.1431 214.894C92.026 214.948 91.8987 214.975 91.7699 214.975V214.975Z" fill="#2F2E41"/>
</g>
<rect x="83.814" y="52.0581" width="144.919" height="1.40698" fill="#BEB5EB"/>
<rect x="279.384" y="102.006" width="43.6163" height="1.40698" fill="#BEB5EB"/>
<rect x="279.384" y="2.11047" width="43.6163" height="1.40698" fill="#BEB5EB"/>
<rect x="278.477" y="2.11047" width="1.40698" height="70.3488" transform="rotate(45 278.477 2.11047)" fill="#BEB5EB"/>
<rect x="228.733" y="53.7565" width="1.40698" height="70.3488" transform="rotate(-45 228.733 53.7565)" fill="#BEB5EB"/>
<circle cx="228.733" cy="52.7616" r="2.81395" fill="#BEB5EB"/>
<circle cx="279.384" cy="102.709" r="2.81395" fill="#BEB5EB"/>
<circle cx="279.384" cy="2.81395" r="2.81395" fill="#BEB5EB"/>
<rect x="82.407" y="53.4651" width="1.40698" height="53.4651" fill="#BEB5EB"/>
<rect x="81" y="50.6512" width="5.62791" height="5.62791" rx="2.81395" fill="#BEB5EB"/>
<defs>
<clipPath id="clip0">
<rect width="215" height="159" fill="white" transform="translate(0 142)"/>
</clipPath>
</defs>
</svg>
