<svg width="512" height="512" viewBox="0 0 512 512" fill="none" xmlns="http://www.w3.org/2000/svg">
<g clip-path="url(#clip0_1273_85)">
<path fill-rule="evenodd" clip-rule="evenodd" d="M256 464C263.36 464 282.976 456.768 303.584 415.552C313.376 395.968 321.6 371.712 327.328 344H184.672C190.4 371.712 198.624 395.968 208.416 415.552C229.024 456.768 248.64 464 256 464ZM177.728 296C175.416 269.383 175.416 242.617 177.728 216H334.272C336.583 242.617 336.583 269.383 334.272 296H177.728ZM376.224 344C369.056 383.168 357.248 417.856 342.112 445.376C387.193 424.805 423.489 388.872 444.512 344H376.224ZM460.16 296H382.4C384.484 269.374 384.484 242.626 382.4 216H460.128C465.278 242.418 465.278 269.582 460.128 296H460.16ZM129.568 296H51.84C46.6901 269.582 46.6901 242.418 51.84 216H129.6C127.513 242.626 127.513 269.374 129.6 296H129.568ZM67.488 344H135.776C142.944 383.168 154.752 417.856 169.888 445.376C124.807 424.805 88.5106 388.872 67.488 344ZM184.672 168H327.328C321.6 140.288 313.376 116.032 303.584 96.448C282.976 55.232 263.36 48 256 48C248.64 48 229.024 55.232 208.416 96.448C198.624 116.032 190.4 140.288 184.672 168ZM376.224 168H444.512C423.487 123.129 387.192 87.1969 342.112 66.624C357.248 94.144 369.056 128.832 376.224 168ZM169.92 66.624C154.784 94.144 142.976 128.832 135.808 168H67.488C88.5106 123.128 124.839 87.1946 169.92 66.624ZM256 0C323.895 0 389.01 26.9714 437.019 74.9807C485.029 122.99 512 188.105 512 256C512 323.895 485.029 389.01 437.019 437.019C389.01 485.029 323.895 512 256 512C188.105 512 122.99 485.029 74.9807 437.019C26.9714 389.01 0 323.895 0 256C0 188.105 26.9714 122.99 74.9807 74.9807C122.99 26.9714 188.105 0 256 0Z" fill="#C4CFD1"/>
</g>
<defs>
<clipPath id="clip0_1273_85">
<rect width="512" height="512" fill="white"/>
</clipPath>
</defs>
</svg>
